# Wavefront OBJ file
# Exported by Misfit Model 3D 1.3.8
# Sat Feb 28 14:43:34 2015

mtllib ghost.mtl

# 32 Vertices
v -4.0 9.0 -4.0
v -5.0 8.5938 3.5996
v -4.0 9.0 4.0
v -5.0 8.593799 -3.5996
v -4.0 1.0 -4.0
v -5.0 1.3994 3.5996
v -4.0 1.0 4.0
v -5.0 1.3994 -3.5996
v 4.0 9.0 4.0
v 5.0 8.593799 -3.5996
v 4.0 9.0 -4.0
v 5.0 8.5938 3.5996
v 4.0 1.0 4.0
v 5.0 1.3994 -3.5996
v 4.0 1.0 -4.0
v 5.0 1.3994 3.5996
v 3.5996 0.0 3.5996
v -3.5996 0.0 3.5996
v 3.5996 -0.0 -3.5996
v -3.5996 -0.0 -3.5996
v 3.5996 1.3994 -5.0
v -3.5996 1.3994 -5.0
v 3.5996 8.593799 -5.0
v -3.5996 8.593799 -5.0
v 3.5996 10.0 -3.5996
v -3.5996 10.0 -3.5996
v 3.5996 10.0 3.5996
v -3.5996 10.0 3.5996
v 3.5996 8.5938 5.0
v -3.5996 8.5938 5.0
v 3.5996 1.3994 5.0
v -3.5996 1.3994 5.0

# 180 Texture Coordinates
vt 0.0 1.0
vt 0.95 0.95
vt 1.0 1.0
vt 0.0 1.0
vt 0.05 0.95
vt 0.95 0.95
vt 0.0 1.0
vt 0.0 0.0
vt 0.05 0.95
vt 1.0 1.0
vt 0.95 0.05
vt 1.0 0.0
vt 1.0 1.0
vt 0.95 0.95
vt 0.95 0.05
vt 0.95 0.95
vt 0.05 0.95
vt 0.95 0.05
vt 0.05 0.95
vt 0.05 0.05
vt 0.95 0.05
vt 0.05 0.95
vt 0.0 0.0
vt 0.05 0.05
vt 0.0 0.0
vt 1.0 0.0
vt 0.05 0.05
vt 0.95 0.05
vt 0.05 0.05
vt 1.0 0.0
vt 0.0 1.0
vt 0.95 0.95
vt 1.0 1.0
vt 0.0 1.0
vt 0.05 0.95
vt 0.95 0.95
vt 0.0 1.0
vt 0.0 0.0
vt 0.05 0.95
vt 0.95 0.95
vt 0.05 0.95
vt 0.95 0.05
vt 0.95 0.95
vt 0.95 0.05
vt 1.0 1.0
vt 1.0 1.0
vt 0.95 0.05
vt 1.0 -0.0
vt 0.05 0.95
vt 0.05 0.05
vt 0.95 0.05
vt 0.05 0.95
vt 0.0 0.0
vt 0.05 0.05
vt 0.0 0.0
vt 1.0 -0.0
vt 0.05 0.05
vt 0.95 0.05
vt 0.05 0.05
vt 1.0 -0.0
vt 0.0 1.0
vt 0.95 0.95
vt 1.0 1.0
vt 0.0 1.0
vt 0.05 0.95
vt 0.95 0.95
vt 0.0 1.0
vt 0.0 0.0
vt 0.05 0.95
vt 0.95 0.95
vt 0.05 0.95
vt 0.95 0.05
vt 0.95 0.95
vt 0.95 0.05
vt 1.0 1.0
vt 1.0 1.0
vt 0.95 0.05
vt 1.0 -0.0
vt 0.05 0.95
vt 0.05 0.05
vt 0.95 0.05
vt 0.05 0.95
vt 0.0 0.0
vt 0.05 0.05
vt 0.0 0.0
vt 1.0 -0.0
vt 0.05 0.05
vt 0.95 0.05
vt 0.05 0.05
vt 1.0 -0.0
vt 1.0 -0.0
vt 0.05 0.05
vt 0.0 0.0
vt 1.0 -0.0
vt 0.95 0.05
vt 0.05 0.05
vt 1.0 -0.0
vt 1.0 1.0
vt 0.95 0.05
vt 0.05 0.05
vt 0.95 0.05
vt 0.05 0.95
vt 0.05 0.05
vt 0.05 0.95
vt 0.0 0.0
vt 0.0 0.0
vt 0.05 0.95
vt 0.0 1.0
vt 0.95 0.05
vt 0.95 0.95
vt 0.05 0.95
vt 0.95 0.05
vt 1.0 1.0
vt 0.95 0.95
vt 1.0 1.0
vt 0.0 1.0
vt 0.95 0.95
vt 0.05 0.95
vt 0.95 0.95
vt 0.0 1.0
vt 0.0 1.0
vt 0.95 0.95
vt 1.0 1.0
vt 0.0 1.0
vt 0.05 0.95
vt 0.95 0.95
vt 0.0 1.0
vt 0.0 0.0
vt 0.05 0.95
vt 0.95 0.95
vt 0.05 0.95
vt 0.95 0.05
vt 0.95 0.95
vt 0.95 0.05
vt 1.0 1.0
vt 1.0 1.0
vt 0.95 0.05
vt 1.0 0.0
vt 0.05 0.95
vt 0.05 0.05
vt 0.95 0.05
vt 0.05 0.95
vt 0.0 0.0
vt 0.05 0.05
vt 0.0 0.0
vt 1.0 0.0
vt 0.05 0.05
vt 0.95 0.05
vt 0.05 0.05
vt 1.0 0.0
vt 0.0 1.0
vt 0.95 0.95
vt 1.0 1.0
vt 0.0 1.0
vt 0.05 0.95
vt 0.95 0.95
vt 0.0 1.0
vt 0.0 0.0
vt 0.05 0.95
vt 0.95 0.95
vt 0.05 0.95
vt 0.95 0.05
vt 0.95 0.95
vt 0.95 0.05
vt 1.0 1.0
vt 1.0 1.0
vt 0.95 0.05
vt 1.0 0.0
vt 0.05 0.95
vt 0.05 0.05
vt 0.95 0.05
vt 0.05 0.95
vt 0.0 0.0
vt 0.05 0.05
vt 0.0 0.0
vt 1.0 0.0
vt 0.05 0.05
vt 0.95 0.05
vt 0.05 0.05
vt 1.0 0.0

# 180 Vertex Normals
vn -0.57831 0.576113 -0.577626
vn -0.715792 0.624339 0.312798
vn -0.577626 0.576113 0.57831
vn -0.57831 0.576113 -0.577626
vn -0.832644 0.247272 -0.495541
vn -0.715792 0.624339 0.312798
vn -0.57831 0.576113 -0.577626
vn -0.577303 -0.577564 -0.577184
vn -0.832644 0.247272 -0.495541
vn -0.577626 0.576113 0.57831
vn -0.832078 -0.248119 0.496067
vn -0.577184 -0.577564 0.577303
vn -0.577626 0.576113 0.57831
vn -0.715792 0.624339 0.312798
vn -0.832078 -0.248119 0.496067
vn -0.715792 0.624339 0.312798
vn -0.832644 0.247272 -0.495541
vn -0.832078 -0.248119 0.496067
vn -0.832644 0.247272 -0.495541
vn -0.713341 -0.626873 -0.313328
vn -0.832078 -0.248119 0.496067
vn -0.832644 0.247272 -0.495541
vn -0.577303 -0.577564 -0.577184
vn -0.713341 -0.626873 -0.313328
vn -0.577303 -0.577564 -0.577184
vn -0.577184 -0.577564 0.577303
vn -0.713341 -0.626873 -0.313328
vn -0.832078 -0.248119 0.496067
vn -0.713341 -0.626873 -0.313328
vn -0.577184 -0.577564 0.577303
vn 0.57831 0.576113 0.577626
vn 0.715792 0.624339 -0.312798
vn 0.577626 0.576113 -0.57831
vn 0.57831 0.576113 0.577626
vn 0.832644 0.247272 0.495541
vn 0.715792 0.624339 -0.312798
vn 0.57831 0.576113 0.577626
vn 0.577303 -0.577564 0.577184
vn 0.832644 0.247272 0.495541
vn 0.715792 0.624339 -0.312798
vn 0.832644 0.247272 0.495541
vn 0.832078 -0.248119 -0.496067
vn 0.715792 0.624339 -0.312798
vn 0.832078 -0.248119 -0.496067
vn 0.577626 0.576113 -0.57831
vn 0.577626 0.576113 -0.57831
vn 0.832078 -0.248119 -0.496067
vn 0.577184 -0.577564 -0.577303
vn 0.832644 0.247272 0.495541
vn 0.713341 -0.626873 0.313328
vn 0.832078 -0.248119 -0.496067
vn 0.832644 0.247272 0.495541
vn 0.577303 -0.577564 0.577184
vn 0.713341 -0.626873 0.313328
vn 0.577303 -0.577564 0.577184
vn 0.577184 -0.577564 -0.577303
vn 0.713341 -0.626873 0.313328
vn 0.832078 -0.248119 -0.496067
vn 0.713341 -0.626873 0.313328
vn 0.577184 -0.577564 -0.577303
vn -0.577184 -0.577564 0.577303
vn 0.31325 -0.713703 0.6265
vn 0.577303 -0.577564 0.577184
vn -0.577184 -0.577564 0.577303
vn -0.495989 -0.832162 0.247995
vn 0.31325 -0.713703 0.6265
vn -0.577184 -0.577564 0.577303
vn -0.577303 -0.577564 -0.577184
vn -0.495989 -0.832162 0.247995
vn 0.31325 -0.713703 0.6265
vn -0.495989 -0.832162 0.247995
vn 0.495989 -0.832162 -0.247995
vn 0.31325 -0.713703 0.6265
vn 0.495989 -0.832162 -0.247995
vn 0.577303 -0.577564 0.577184
vn 0.577303 -0.577564 0.577184
vn 0.495989 -0.832162 -0.247995
vn 0.577184 -0.577564 -0.577303
vn -0.495989 -0.832162 0.247995
vn -0.31325 -0.713703 -0.6265
vn 0.495989 -0.832162 -0.247995
vn -0.495989 -0.832162 0.247995
vn -0.577303 -0.577564 -0.577184
vn -0.31325 -0.713703 -0.6265
vn -0.577303 -0.577564 -0.577184
vn 0.577184 -0.577564 -0.577303
vn -0.31325 -0.713703 -0.6265
vn 0.495989 -0.832162 -0.247995
vn -0.31325 -0.713703 -0.6265
vn 0.577184 -0.577564 -0.577303
vn -0.577303 -0.577564 -0.577184
vn 0.313328 -0.626873 -0.713341
vn 0.577184 -0.577564 -0.577303
vn -0.577303 -0.577564 -0.577184
vn -0.496067 -0.248119 -0.832078
vn 0.313328 -0.626873 -0.713341
vn -0.577303 -0.577564 -0.577184
vn -0.57831 0.576113 -0.577626
vn -0.496067 -0.248119 -0.832078
vn 0.313328 -0.626873 -0.713341
vn -0.496067 -0.248119 -0.832078
vn 0.495541 0.247272 -0.832644
vn 0.313328 -0.626873 -0.713341
vn 0.495541 0.247272 -0.832644
vn 0.577184 -0.577564 -0.577303
vn 0.577184 -0.577564 -0.577303
vn 0.495541 0.247272 -0.832644
vn 0.577626 0.576113 -0.57831
vn -0.496067 -0.248119 -0.832078
vn -0.312798 0.624339 -0.715792
vn 0.495541 0.247272 -0.832644
vn -0.496067 -0.248119 -0.832078
vn -0.57831 0.576113 -0.577626
vn -0.312798 0.624339 -0.715792
vn -0.57831 0.576113 -0.577626
vn 0.577626 0.576113 -0.57831
vn -0.312798 0.624339 -0.715792
vn 0.495541 0.247272 -0.832644
vn -0.312798 0.624339 -0.715792
vn 0.577626 0.576113 -0.57831
vn -0.57831 0.576113 -0.577626
vn 0.31325 0.713703 -0.6265
vn 0.577626 0.576113 -0.57831
vn -0.57831 0.576113 -0.577626
vn -0.495989 0.832162 -0.247995
vn 0.31325 0.713703 -0.6265
vn -0.57831 0.576113 -0.577626
vn -0.577626 0.576113 0.57831
vn -0.495989 0.832162 -0.247995
vn 0.31325 0.713703 -0.6265
vn -0.495989 0.832162 -0.247995
vn 0.495989 0.832162 0.247995
vn 0.31325 0.713703 -0.6265
vn 0.495989 0.832162 0.247995
vn 0.577626 0.576113 -0.57831
vn 0.577626 0.576113 -0.57831
vn 0.495989 0.832162 0.247995
vn 0.57831 0.576113 0.577626
vn -0.495989 0.832162 -0.247995
vn -0.31325 0.713703 0.6265
vn 0.495989 0.832162 0.247995
vn -0.495989 0.832162 -0.247995
vn -0.577626 0.576113 0.57831
vn -0.31325 0.713703 0.6265
vn -0.577626 0.576113 0.57831
vn 0.57831 0.576113 0.577626
vn -0.31325 0.713703 0.6265
vn 0.495989 0.832162 0.247995
vn -0.31325 0.713703 0.6265
vn 0.57831 0.576113 0.577626
vn -0.577626 0.576113 0.57831
vn 0.312798 0.624339 0.715792
vn 0.57831 0.576113 0.577626
vn -0.577626 0.576113 0.57831
vn -0.495541 0.247272 0.832644
vn 0.312798 0.624339 0.715792
vn -0.577626 0.576113 0.57831
vn -0.577184 -0.577564 0.577303
vn -0.495541 0.247272 0.832644
vn 0.312798 0.624339 0.715792
vn -0.495541 0.247272 0.832644
vn 0.496067 -0.248119 0.832078
vn 0.312798 0.624339 0.715792
vn 0.496067 -0.248119 0.832078
vn 0.57831 0.576113 0.577626
vn 0.57831 0.576113 0.577626
vn 0.496067 -0.248119 0.832078
vn 0.577303 -0.577564 0.577184
vn -0.495541 0.247272 0.832644
vn -0.313328 -0.626873 0.713341
vn 0.496067 -0.248119 0.832078
vn -0.495541 0.247272 0.832644
vn -0.577184 -0.577564 0.577303
vn -0.313328 -0.626873 0.713341
vn -0.577184 -0.577564 0.577303
vn 0.577303 -0.577564 0.577184
vn -0.313328 -0.626873 0.713341
vn 0.496067 -0.248119 0.832078
vn -0.313328 -0.626873 0.713341
vn 0.577303 -0.577564 0.577184

# polySurface3__Mt_HatenaBlock, 60 grouped triangles

usemtl ghost
o polySurface3__Mt_HatenaBlock
g polySurface3__Mt_HatenaBlock

f 1/1/1 2/2/2 3/3/3
f 1/4/4 4/5/5 2/6/6
f 1/7/7 5/8/8 4/9/9
f 3/10/10 6/11/11 7/12/12
f 3/13/13 2/14/14 6/15/15
f 2/16/16 4/17/17 6/18/18
f 4/19/19 8/20/20 6/21/21
f 4/22/22 5/23/23 8/24/24
f 5/25/25 7/26/26 8/27/27
f 6/28/28 8/29/29 7/30/30
f 9/31/31 10/32/32 11/33/33
f 9/34/34 12/35/35 10/36/36
f 9/37/37 13/38/38 12/39/39
f 10/40/40 12/41/41 14/42/42
f 10/43/43 14/44/44 11/45/45
f 11/46/46 14/47/47 15/48/48
f 12/49/49 16/50/50 14/51/51
f 12/52/52 13/53/53 16/54/54
f 13/55/55 15/56/56 16/57/57
f 14/58/58 16/59/59 15/60/60
f 7/61/61 17/62/62 13/63/63
f 7/64/64 18/65/65 17/66/66
f 7/67/67 5/68/68 18/69/69
f 17/70/70 18/71/71 19/72/72
f 17/73/73 19/74/74 13/75/75
f 13/76/76 19/77/77 15/78/78
f 18/79/79 20/80/80 19/81/81
f 18/82/82 5/83/83 20/84/84
f 5/85/85 15/86/86 20/87/87
f 19/88/88 20/89/89 15/90/90
f 5/91/91 21/92/92 15/93/93
f 5/94/94 22/95/95 21/96/96
f 5/97/97 1/98/98 22/99/99
f 21/100/100 22/101/101 23/102/102
f 21/103/103 23/104/104 15/105/105
f 15/106/106 23/107/107 11/108/108
f 22/109/109 24/110/110 23/111/111
f 22/112/112 1/113/113 24/114/114
f 1/115/115 11/116/116 24/117/117
f 23/118/118 24/119/119 11/120/120
f 1/121/121 25/122/122 11/123/123
f 1/124/124 26/125/125 25/126/126
f 1/127/127 3/128/128 26/129/129
f 25/130/130 26/131/131 27/132/132
f 25/133/133 27/134/134 11/135/135
f 11/136/136 27/137/137 9/138/138
f 26/139/139 28/140/140 27/141/141
f 26/142/142 3/143/143 28/144/144
f 3/145/145 9/146/146 28/147/147
f 27/148/148 28/149/149 9/150/150
f 3/151/151 29/152/152 9/153/153
f 3/154/154 30/155/155 29/156/156
f 3/157/157 7/158/158 30/159/159
f 29/160/160 30/161/161 31/162/162
f 29/163/163 31/164/164 9/165/165
f 9/166/166 31/167/167 13/168/168
f 30/169/169 32/170/170 31/171/171
f 30/172/172 7/173/173 32/174/174
f 7/175/175 13/176/176 32/177/177
f 31/178/178 32/179/179 13/180/180
